<?xml version="1.0" encoding="UTF-8" standalone="no"?>
<!-- Created with Inkscape (http://www.inkscape.org/) -->

<svg
   xmlns:dc="http://purl.org/dc/elements/1.1/"
   xmlns:cc="http://creativecommons.org/ns#"
   xmlns:rdf="http://www.w3.org/1999/02/22-rdf-syntax-ns#"
   xmlns:svg="http://www.w3.org/2000/svg"
   xmlns="http://www.w3.org/2000/svg"
   xmlns:sodipodi="http://sodipodi.sourceforge.net/DTD/sodipodi-0.dtd"
   xmlns:inkscape="http://www.inkscape.org/namespaces/inkscape"
   width="189.96626"
   height="86.487999"
   viewBox="0 0 50.261905 22.883283"
   version="1.1"
   id="svg5503"
   inkscape:version="0.92.0 r15299"
   sodipodi:docname="cmi.svg">
  <defs
     id="defs5497">
    <clipPath
       id="clipPath4748"
       clipPathUnits="userSpaceOnUse">
      <path
         inkscape:connector-curvature="0"
         id="path4746"
         d="M 405.644,34.016 H 547.37 V 98.132 H 405.644 Z" />
    </clipPath>
  </defs>
  <sodipodi:namedview
     id="base"
     pagecolor="#ffffff"
     bordercolor="#666666"
     borderopacity="1.0"
     inkscape:pageopacity="0.0"
     inkscape:pageshadow="2"
     inkscape:zoom="4.7468791"
     inkscape:cx="94.483131"
     inkscape:cy="42.743999"
     inkscape:document-units="mm"
     inkscape:current-layer="layer1"
     showgrid="false"
     fit-margin-top="0"
     fit-margin-left="0"
     fit-margin-right="0"
     fit-margin-bottom="0"
     units="px"
     inkscape:window-width="1280"
     inkscape:window-height="744"
     inkscape:window-x="-4"
     inkscape:window-y="-4"
     inkscape:window-maximized="1" />
  <metadata
     id="metadata5500">
    <rdf:RDF>
      <cc:Work
         rdf:about="">
        <dc:format>image/svg+xml</dc:format>
        <dc:type
           rdf:resource="http://purl.org/dc/dcmitype/StillImage" />
        <dc:title></dc:title>
      </cc:Work>
    </rdf:RDF>
  </metadata>
  <g
     inkscape:label="Layer 1"
     inkscape:groupmode="layer"
     id="layer1"
     transform="translate(-49.840624,-194.71178)">
    <g
       id="g4742"
       transform="matrix(0.35277777,0,0,-0.35277777,-93.129658,229.46286)">
      <g
         id="g4744"
         clip-path="url(#clipPath4748)">
        <g
           id="g4750"
           transform="translate(474.2061,74.8444)">
          <path
             d="m 0,0 v 0.01 c -0.064,-0.197 -6.142,-18.622 -8.35,-25.907 -2.161,7.29 -8.093,25.69 -8.157,25.887 -1.055,3.513 -3.961,3.892 -5.163,3.892 -4.463,0 -5.569,-2.899 -5.835,-4.63 l -4.044,-32.557 c 0,0 0.022,0.018 0.024,0.022 -0.041,-0.153 -0.086,-0.366 -0.152,-0.772 -0.327,-1.874 -0.462,-2.729 -0.462,-3.204 0,-2.067 1.642,-3.57 3.897,-3.57 2.151,0 3.44,1.306 3.838,3.885 0.172,1.881 1.618,17.575 2.945,27.119 2.695,-8.625 9.22,-27.503 9.289,-27.704 0.865,-2.722 2.547,-3.3 3.801,-3.3 2.658,0 3.643,2.103 4.204,3.933 0.649,1.882 6.115,17.665 9.004,27.111 1.179,-8.724 2.92,-26.935 2.939,-27.131 0.4,-2.602 1.688,-3.913 3.839,-3.913 2.26,0 3.897,1.503 3.897,3.57 0,0.475 -0.138,1.336 -0.463,3.217 l -0.131,0.774 c 0,0 -0.021,-0.029 -0.026,-0.035 0,0.243 -0.052,0.667 -0.147,1.416 L 10.876,-0.763 C 10.616,0.978 9.508,3.882 5.045,3.882 2.613,3.882 0.725,2.431 0,0"
             style="fill:#26226a;fill-opacity:1;fill-rule:nonzero;stroke:none"
             id="path4752"
             inkscape:connector-curvature="0" />
        </g>
        <g
           id="g4754"
           transform="translate(492.7336,74.4163)">
          <path
             d="m 0,0 v -36.087 c 0,-3.187 2.018,-4.311 3.74,-4.311 1.728,0 3.745,1.124 3.745,4.311 V 0 C 7.485,3.182 5.468,4.31 3.74,4.31 2.018,4.31 0,3.182 0,0"
             style="fill:#ec008c;fill-opacity:1;fill-rule:nonzero;stroke:none"
             id="path4756"
             inkscape:connector-curvature="0" />
        </g>
        <g
           id="g4758"
           transform="translate(412.1851,73.2114)">
          <path
             d="m 0,0 c -2.051,-1.856 -3.669,-4.248 -4.807,-7.095 -1.148,-2.875 -1.733,-6.066 -1.733,-9.471 0,-6.884 2.261,-12.448 6.717,-16.541 3.87,-3.561 8.934,-5.363 15.061,-5.363 4.005,0 7.411,0.789 10.122,2.348 1.771,1.016 2.597,2.205 2.597,3.749 0,0.844 -0.268,1.564 -0.819,2.204 -0.792,0.914 -1.522,1.023 -1.999,1.023 -0.578,0 -1.192,-0.134 -1.824,-0.404 l -3.179,-1.344 c -1.269,-0.535 -2.916,-0.805 -4.898,-0.805 -3.547,0 -6.535,1.062 -8.878,3.167 -2.94,2.638 -4.43,6.645 -4.43,11.899 0,5.329 1.504,9.451 4.472,12.269 2.232,2.117 5.19,3.194 8.797,3.194 1.977,0 4.047,-0.409 6.151,-1.215 2.083,-0.794 3.012,-0.912 3.378,-0.912 0.954,0 1.638,0.293 2.135,0.912 0.482,0.607 0.715,1.321 0.715,2.176 0,0.722 0,2.901 -4.398,4.495 -2.358,0.85 -4.984,1.28 -7.811,1.28 C 9.252,5.566 4.076,3.695 0,0"
             style="fill:#ec008c;fill-opacity:1;fill-rule:nonzero;stroke:none"
             id="path4760"
             inkscape:connector-curvature="0" />
        </g>
        <g
           id="g4762"
           transform="translate(475.2244,88.9323)">
          <path
             d="m 0,0 c 0,-5.085 -4.121,-9.205 -9.201,-9.205 -5.084,0 -9.205,4.12 -9.205,9.205 0,5.082 4.121,9.2 9.205,9.2 C -4.121,9.2 0,5.082 0,0"
             style="fill:#ec008c;fill-opacity:1;fill-rule:nonzero;stroke:none"
             id="path4764"
             inkscape:connector-curvature="0" />
        </g>
        <g
           id="g4766"
           transform="translate(532.259,52.716)">
          <path
             d="m 0,0 h -2.419 c 0.037,-0.688 0.467,-1.138 1.074,-1.138 0.388,0 0.731,0.199 0.945,0.553 0.044,0.082 0.085,0.107 0.134,0.107 0.033,0 0.085,-0.025 0.136,-0.059 L -0.008,-0.6 c 0.117,-0.065 0.144,-0.088 0.144,-0.157 0,-0.054 -0.099,-0.211 -0.257,-0.371 -0.309,-0.349 -0.754,-0.536 -1.258,-0.536 -0.972,0 -1.642,0.733 -1.642,1.784 0,1.029 0.678,1.756 1.635,1.756 0.943,0 1.602,-0.717 1.602,-1.728 C 0.216,0.033 0.165,0 0,0 m -2.373,0.482 h 1.979 c -0.108,0.531 -0.496,0.873 -0.992,0.873 -0.483,0 -0.907,-0.366 -0.987,-0.873 m -2.21,0.954 c 0.298,0.364 0.447,0.446 0.773,0.446 0.258,0 0.469,-0.089 0.462,-0.195 0,-0.022 -0.027,-0.074 -0.057,-0.136 L -3.481,1.411 C -3.546,1.289 -3.567,1.266 -3.629,1.266 c -0.029,0 -0.047,0 -0.083,0.03 -0.052,0.018 -0.116,0.037 -0.189,0.037 -0.487,0 -0.682,-0.328 -0.682,-1.121 v -1.567 c 0,-0.189 -0.024,-0.211 -0.211,-0.211 h -0.155 c -0.184,0 -0.208,0.022 -0.208,0.211 v 2.946 c 0,0.184 0.024,0.209 0.208,0.209 h 0.155 c 0.187,0 0.211,-0.025 0.211,-0.209 z M -6.255,0 h -2.418 c 0.036,-0.688 0.467,-1.138 1.074,-1.138 0.387,0 0.73,0.199 0.941,0.553 0.041,0.082 0.089,0.107 0.137,0.107 0.028,0 0.082,-0.025 0.138,-0.059 L -6.261,-0.6 c 0.11,-0.065 0.139,-0.088 0.139,-0.157 0,-0.054 -0.098,-0.211 -0.253,-0.371 -0.307,-0.349 -0.757,-0.536 -1.258,-0.536 -0.977,0 -1.646,0.733 -1.646,1.784 0,1.029 0.677,1.756 1.638,1.756 0.936,0 1.597,-0.717 1.597,-1.728 C -6.044,0.033 -6.092,0 -6.255,0 m -2.378,0.482 h 1.981 c -0.102,0.531 -0.496,0.873 -0.989,0.873 -0.485,0 -0.907,-0.366 -0.992,-0.873 m -1.619,-1.837 c 0,-0.186 -0.027,-0.211 -0.213,-0.211 h -0.154 c -0.189,0 -0.211,0.025 -0.211,0.211 v 2.621 h -0.136 c -0.186,0 -0.21,0.026 -0.21,0.213 v 0.112 c 0,0.184 0.024,0.211 0.21,0.211 h 0.136 v 1.002 c 0,0.188 0.022,0.211 0.211,0.211 h 0.154 c 0.186,0 0.213,-0.023 0.213,-0.211 V 1.802 h 0.387 c 0.188,0 0.211,-0.027 0.211,-0.211 V 1.479 c 0,-0.187 -0.023,-0.213 -0.211,-0.213 h -0.387 z m -2.676,2.791 c 0.296,0.364 0.445,0.446 0.77,0.446 0.259,0 0.467,-0.089 0.46,-0.195 l -0.054,-0.136 -0.075,-0.14 c -0.066,-0.122 -0.087,-0.145 -0.152,-0.145 -0.026,0 -0.043,0 -0.083,0.03 -0.05,0.018 -0.115,0.037 -0.184,0.037 -0.49,0 -0.682,-0.328 -0.682,-1.121 v -1.567 c 0,-0.189 -0.026,-0.211 -0.211,-0.211 h -0.157 c -0.187,0 -0.209,0.022 -0.209,0.211 v 2.946 c 0,0.184 0.022,0.209 0.209,0.209 h 0.157 c 0.185,0 0.211,-0.025 0.211,-0.209 z m -2.266,-2.791 v 0.259 c -0.325,-0.398 -0.681,-0.568 -1.17,-0.568 -0.925,0 -1.613,0.765 -1.613,1.784 0,1.024 0.683,1.762 1.613,1.762 0.482,0 0.836,-0.171 1.17,-0.562 v 0.271 c 0,0.184 0.024,0.211 0.224,0.211 h 0.147 c 0.189,0 0.212,-0.027 0.212,-0.211 v -2.946 c 0,-0.186 -0.023,-0.211 -0.212,-0.211 h -0.147 c -0.2,0 -0.224,0.025 -0.224,0.211 m -1.096,2.71 c -0.618,0 -1.093,-0.529 -1.093,-1.207 0,-0.748 0.461,-1.286 1.097,-1.286 0.669,0 1.134,0.521 1.134,1.276 0,0.715 -0.474,1.217 -1.138,1.217 m -4.697,0.049 c 0.288,0.339 0.559,0.472 0.977,0.472 0.395,0 0.758,-0.179 0.953,-0.465 0.138,-0.201 0.197,-0.452 0.197,-0.894 v -1.874 c 0,-0.184 -0.027,-0.211 -0.214,-0.211 h -0.154 c -0.186,0 -0.211,0.027 -0.211,0.211 V 0.48 c 0,0.615 -0.205,0.868 -0.695,0.868 -0.601,0 -0.853,-0.367 -0.853,-1.237 v -1.468 c 0,-0.184 -0.03,-0.211 -0.211,-0.211 h -0.157 c -0.185,0 -0.209,0.027 -0.209,0.211 v 5.495 c 0,0.185 0.024,0.212 0.209,0.212 h 0.157 c 0.181,0 0.211,-0.027 0.211,-0.212 z m -1.534,1.613 c 0,-0.154 -0.034,-0.212 -0.13,-0.212 -0.04,0 -0.072,0.018 -0.137,0.082 -0.277,0.271 -0.888,0.48 -1.38,0.48 -1.176,0 -2.176,-1.021 -2.176,-2.23 0,-1.228 0.979,-2.233 2.183,-2.233 0.477,0 1.096,0.211 1.387,0.49 0.056,0.046 0.083,0.064 0.123,0.064 0.096,0 0.13,-0.058 0.13,-0.213 v -0.229 c 0,-0.129 -0.005,-0.154 -0.05,-0.186 -0.341,-0.273 -1.04,-0.494 -1.566,-0.494 -1.551,0 -2.817,1.258 -2.817,2.783 0,1.539 1.274,2.815 2.823,2.815 0.573,0 1.242,-0.218 1.568,-0.509 0.042,-0.037 0.042,-0.049 0.042,-0.179 z M 2.575,1.348 c -0.618,0 -1.095,-0.532 -1.095,-1.21 0,-0.744 0.463,-1.276 1.104,-1.276 0.681,0 1.119,0.504 1.119,1.276 0,0.72 -0.453,1.21 -1.128,1.21 m 1.088,-2.703 v 0.254 C 3.388,-1.47 2.988,-1.664 2.5,-1.664 c -0.922,0 -1.613,0.765 -1.613,1.784 0,1.017 0.681,1.756 1.613,1.756 0.473,0 0.836,-0.171 1.169,-0.556 v 2.818 c 0,0.202 0.012,0.212 0.205,0.212 h 0.16 c 0.187,0 0.212,-0.027 0.212,-0.212 v -5.493 c 0,-0.186 -0.025,-0.211 -0.212,-0.211 h -0.16 c -0.186,0 -0.211,0.025 -0.211,0.211"
             style="fill:#ec008c;fill-opacity:1;fill-rule:nonzero;stroke:none"
             id="path4768"
             inkscape:connector-curvature="0" />
        </g>
        <g
           id="g4770"
           transform="translate(542.9638,45.6605)">
          <path
             d="m 0,0 c 0.29,0.356 0.555,0.484 0.973,0.484 0.41,0 0.78,-0.18 0.967,-0.462 0.131,-0.213 0.19,-0.462 0.19,-0.903 v -1.875 c 0,-0.185 -0.025,-0.213 -0.213,-0.213 H 1.761 c -0.188,0 -0.212,0.028 -0.212,0.213 v 1.778 c 0,0.693 -0.187,0.941 -0.713,0.941 C 0.253,-0.037 0,-0.408 0,-1.287 v -1.469 c 0,-0.185 -0.024,-0.213 -0.212,-0.213 h -0.154 c -0.187,0 -0.21,0.028 -0.21,0.213 v 2.949 c 0,0.183 0.023,0.213 0.21,0.213 h 0.154 C -0.024,0.406 0,0.376 0,0.193 Z m -1.672,-1.399 h -2.414 c 0.031,-0.687 0.462,-1.131 1.07,-1.131 0.387,0 0.73,0.192 0.939,0.547 0.048,0.082 0.09,0.107 0.141,0.107 0.029,0 0.08,-0.025 0.134,-0.057 l 0.122,-0.064 c 0.117,-0.069 0.141,-0.089 0.141,-0.154 0,-0.057 -0.096,-0.209 -0.256,-0.375 -0.307,-0.345 -0.754,-0.536 -1.256,-0.536 -0.975,0 -1.645,0.733 -1.645,1.788 0,1.028 0.678,1.751 1.635,1.751 0.941,0 1.601,-0.716 1.601,-1.727 0,-0.115 -0.052,-0.149 -0.212,-0.149 m -2.373,0.486 h 1.977 c -0.106,0.525 -0.494,0.871 -0.993,0.871 -0.483,0 -0.904,-0.366 -0.984,-0.871 m -5.376,0.951 c 0.236,0.318 0.478,0.448 0.835,0.448 0.406,0 0.731,-0.194 0.925,-0.544 0.204,0.352 0.555,0.544 1.003,0.544 0.728,0 1.099,-0.448 1.099,-1.315 v -1.925 c 0,-0.189 -0.025,-0.211 -0.209,-0.211 H -5.92 c -0.191,0 -0.214,0.022 -0.214,0.211 v 1.834 c 0,0.614 -0.19,0.878 -0.615,0.878 -0.497,0 -0.74,-0.347 -0.74,-1.055 v -1.657 c 0,-0.189 -0.022,-0.211 -0.209,-0.211 h -0.157 c -0.184,0 -0.211,0.022 -0.211,0.211 v 1.787 c 0,0.608 -0.213,0.925 -0.605,0.925 -0.507,0 -0.75,-0.357 -0.75,-1.086 v -1.626 c 0,-0.189 -0.025,-0.211 -0.212,-0.211 h -0.152 c -0.19,0 -0.211,0.022 -0.211,0.211 v 2.945 c 0,0.186 0.021,0.212 0.211,0.212 h 0.152 c 0.187,0 0.212,-0.026 0.212,-0.212 z m -1.673,-1.437 h -2.413 c 0.031,-0.687 0.462,-1.131 1.071,-1.131 0.384,0 0.731,0.192 0.939,0.547 0.048,0.082 0.089,0.107 0.141,0.107 0.03,0 0.081,-0.025 0.133,-0.057 l 0.123,-0.064 c 0.115,-0.069 0.139,-0.089 0.139,-0.154 0,-0.057 -0.098,-0.209 -0.255,-0.375 -0.305,-0.345 -0.755,-0.536 -1.256,-0.536 -0.974,0 -1.645,0.733 -1.645,1.788 0,1.028 0.681,1.751 1.634,1.751 0.943,0 1.6,-0.716 1.6,-1.727 0,-0.115 -0.051,-0.149 -0.211,-0.149 m -2.374,0.486 h 1.979 c -0.106,0.525 -0.494,0.871 -0.994,0.871 -0.483,0 -0.904,-0.366 -0.985,-0.871 m -2.159,-2.075 v 0.493 c -0.325,-0.37 -0.733,-0.557 -1.185,-0.557 -0.915,0 -1.606,0.752 -1.606,1.761 0,1.022 0.691,1.777 1.629,1.777 0.474,0 0.837,-0.182 1.162,-0.565 v 0.272 c 0,0.184 0.027,0.213 0.212,0.213 h 0.154 c 0.185,0 0.21,-0.029 0.21,-0.213 v -3.085 c 0,-0.666 -0.082,-0.989 -0.32,-1.32 -0.298,-0.397 -0.781,-0.624 -1.343,-0.624 -0.891,0 -1.63,0.641 -1.63,1.398 0,0.106 0.046,0.141 0.209,0.141 h 0.154 c 0.181,0 0.203,-0.017 0.221,-0.18 0.038,-0.479 0.489,-0.833 1.054,-0.833 0.706,0 1.079,0.452 1.079,1.322 m -1.096,2.946 c -0.639,0 -1.103,-0.522 -1.103,-1.242 0,-0.731 0.456,-1.242 1.103,-1.242 0.649,0 1.123,0.522 1.123,1.242 0,0.733 -0.467,1.242 -1.123,1.242 m -3.162,-2.712 v 0.259 c -0.328,-0.4 -0.685,-0.567 -1.17,-0.567 -0.925,0 -1.613,0.765 -1.613,1.788 0,1.021 0.678,1.76 1.613,1.76 0.48,0 0.833,-0.171 1.17,-0.563 v 0.27 c 0,0.184 0.024,0.213 0.216,0.213 h 0.155 c 0.189,0 0.208,-0.029 0.208,-0.213 v -2.947 c 0,-0.187 -0.019,-0.211 -0.208,-0.211 h -0.155 c -0.192,0 -0.216,0.024 -0.216,0.211 m -1.098,2.712 c -0.616,0 -1.093,-0.534 -1.093,-1.208 0,-0.747 0.462,-1.28 1.101,-1.28 0.662,0 1.129,0.515 1.129,1.27 0,0.714 -0.475,1.218 -1.137,1.218 M -25.678,0 c 0.29,0.356 0.551,0.484 0.974,0.484 0.404,0 0.775,-0.18 0.964,-0.462 0.128,-0.213 0.187,-0.462 0.187,-0.903 v -1.875 c 0,-0.185 -0.024,-0.213 -0.211,-0.213 h -0.159 c -0.182,0 -0.208,0.028 -0.208,0.213 v 1.778 c 0,0.693 -0.184,0.941 -0.712,0.941 -0.584,0 -0.835,-0.371 -0.835,-1.25 v -1.469 c 0,-0.185 -0.026,-0.213 -0.211,-0.213 h -0.155 c -0.189,0 -0.212,0.028 -0.212,0.213 v 2.949 c 0,0.183 0.023,0.213 0.212,0.213 h 0.155 c 0.185,0 0.211,-0.03 0.211,-0.213 z m -2.266,-2.754 v 0.259 c -0.325,-0.4 -0.683,-0.567 -1.168,-0.567 -0.927,0 -1.616,0.765 -1.616,1.788 0,1.021 0.684,1.76 1.616,1.76 0.479,0 0.832,-0.171 1.168,-0.563 v 0.27 c 0,0.184 0.027,0.213 0.221,0.213 h 0.149 c 0.192,0 0.211,-0.029 0.211,-0.213 v -2.947 c 0,-0.187 -0.019,-0.211 -0.211,-0.211 h -0.149 c -0.194,0 -0.221,0.024 -0.221,0.211 m -1.097,2.712 c -0.617,0 -1.092,-0.534 -1.092,-1.208 0,-0.747 0.461,-1.28 1.104,-1.28 0.666,0 1.127,0.515 1.127,1.27 0,0.714 -0.473,1.218 -1.139,1.218 m -3.63,2.335 c 0.055,0.116 0.093,0.158 0.148,0.158 0.084,0 0.121,-0.05 0.137,-0.202 l 0.731,-4.984 0.015,-0.108 c 0,-0.091 -0.052,-0.122 -0.208,-0.122 h -0.192 c -0.181,0 -0.194,0.017 -0.224,0.193 l -0.473,3.57 -1.696,-3.658 c -0.061,-0.125 -0.083,-0.155 -0.15,-0.155 -0.061,0 -0.095,0.03 -0.152,0.155 l -1.664,3.658 -0.503,-3.57 c -0.032,-0.176 -0.048,-0.193 -0.228,-0.193 h -0.19 c -0.15,0 -0.209,0.031 -0.209,0.122 l 0.011,0.108 0.786,4.984 c 0.025,0.152 0.054,0.202 0.139,0.202 0.056,0 0.094,-0.042 0.141,-0.158 l 1.869,-4.116 z M 3.806,-2.754 c 0,-0.187 -0.024,-0.211 -0.207,-0.211 H 3.44 c -0.188,0 -0.209,0.024 -0.209,0.211 v 2.622 H 3.092 c -0.186,0 -0.21,0.026 -0.21,0.21 v 0.115 c 0,0.184 0.024,0.213 0.21,0.213 h 0.139 v 1.005 c 0,0.184 0.021,0.208 0.209,0.208 h 0.159 c 0.183,0 0.207,-0.024 0.207,-0.208 V 0.406 h 0.389 c 0.188,0 0.211,-0.029 0.211,-0.213 V 0.078 c 0,-0.184 -0.023,-0.21 -0.211,-0.21 H 3.806 Z"
             style="fill:#26226a;fill-opacity:1;fill-rule:nonzero;stroke:none"
             id="path4772"
             inkscape:connector-curvature="0" />
        </g>
        <g
           id="g4774"
           transform="translate(525.5273,34.4161)">
          <path
             d="m 0,0 c 0,-0.183 -0.024,-0.207 -0.212,-0.207 h -0.154 c -0.187,0 -0.212,0.024 -0.212,0.207 v 2.622 h -0.135 c -0.185,0 -0.212,0.024 -0.212,0.214 v 0.112 c 0,0.187 0.027,0.21 0.212,0.21 h 0.135 v 1.005 c 0,0.187 0.025,0.211 0.212,0.211 h 0.154 C -0.024,4.374 0,4.35 0,4.163 V 3.158 h 0.388 c 0.188,0 0.214,-0.023 0.214,-0.21 V 2.836 C 0.602,2.646 0.576,2.622 0.388,2.622 H 0 Z m -3.979,1.193 c 0,-0.681 0.232,-0.97 0.768,-0.97 0.526,0 0.753,0.289 0.753,0.97 v 1.753 c 0,0.186 0.021,0.21 0.213,0.21 h 0.155 c 0.182,0 0.212,-0.024 0.212,-0.21 V 1.129 c 0,-0.496 -0.084,-0.762 -0.311,-1.018 -0.248,-0.27 -0.609,-0.421 -1.022,-0.421 -0.423,0 -0.789,0.151 -1.033,0.421 -0.226,0.256 -0.309,0.522 -0.309,1.018 v 1.817 c 0,0.186 0.022,0.21 0.212,0.21 h 0.152 c 0.189,0 0.21,-0.024 0.21,-0.21 z M -5.911,0 c 0,-0.183 -0.03,-0.207 -0.216,-0.207 h -0.152 c -0.187,0 -0.212,0.024 -0.212,0.207 v 2.622 h -0.135 c -0.192,0 -0.211,0.024 -0.211,0.214 v 0.112 c 0,0.187 0.019,0.21 0.211,0.21 h 0.135 v 1.005 c 0,0.187 0.025,0.211 0.212,0.211 h 0.152 c 0.186,0 0.216,-0.024 0.216,-0.211 V 3.158 h 0.384 c 0.189,0 0.211,-0.023 0.211,-0.21 V 2.836 c 0,-0.19 -0.022,-0.214 -0.211,-0.214 h -0.384 z m -1.765,4.432 c 0,-0.225 -0.187,-0.414 -0.413,-0.414 -0.228,0 -0.414,0.189 -0.414,0.414 0,0.228 0.186,0.414 0.414,0.414 0.226,0 0.413,-0.186 0.413,-0.414 m -0.133,-4.433 c 0,-0.182 -0.024,-0.206 -0.209,-0.206 H -8.17 c -0.186,0 -0.212,0.024 -0.212,0.206 v 2.949 c 0,0.184 0.026,0.21 0.212,0.21 h 0.152 c 0.185,0 0.209,-0.026 0.209,-0.21 z M -9.745,0 c 0,-0.183 -0.022,-0.207 -0.208,-0.207 h -0.157 c -0.187,0 -0.211,0.024 -0.211,0.207 v 2.622 h -0.138 c -0.187,0 -0.211,0.024 -0.211,0.214 v 0.112 c 0,0.187 0.024,0.21 0.211,0.21 h 0.138 v 1.005 c 0,0.187 0.024,0.211 0.211,0.211 h 0.157 c 0.186,0 0.208,-0.024 0.208,-0.211 V 3.158 h 0.386 c 0.19,0 0.216,-0.023 0.216,-0.21 V 2.836 c 0,-0.19 -0.026,-0.214 -0.216,-0.214 h -0.386 z m -2.141,2.47 c -0.066,-0.037 -0.125,-0.059 -0.146,-0.059 -0.025,0 -0.059,0.014 -0.099,0.073 -0.098,0.133 -0.265,0.221 -0.408,0.221 -0.227,0 -0.413,-0.165 -0.413,-0.363 0,-0.207 0.106,-0.303 0.546,-0.49 0.816,-0.341 1.021,-0.547 1.021,-1.064 0,-0.613 -0.501,-1.098 -1.141,-1.098 -0.459,0 -0.85,0.21 -1.067,0.579 -0.055,0.098 -0.087,0.177 -0.087,0.213 0,0.072 0.024,0.096 0.154,0.151 l 0.126,0.049 c 0.069,0.037 0.119,0.048 0.133,0.048 0.056,0.008 0.079,-0.021 0.147,-0.134 0.122,-0.246 0.34,-0.373 0.6,-0.373 0.308,0 0.546,0.223 0.546,0.525 0,0.261 -0.117,0.381 -0.552,0.558 -0.778,0.344 -0.977,0.538 -0.977,0.984 0,0.543 0.423,0.941 1.009,0.941 0.309,0 0.624,-0.174 0.8,-0.43 0.035,-0.05 0.055,-0.096 0.055,-0.123 0,-0.061 -0.028,-0.093 -0.143,-0.154 z m -4.989,0.284 c 0.289,0.357 0.55,0.485 0.972,0.485 0.408,0 0.775,-0.179 0.967,-0.46 0.128,-0.212 0.184,-0.468 0.184,-0.905 v -1.875 c 0,-0.182 -0.024,-0.21 -0.211,-0.21 h -0.155 c -0.184,0 -0.212,0.028 -0.212,0.21 v 1.776 c 0,0.695 -0.184,0.942 -0.71,0.942 -0.586,0 -0.835,-0.371 -0.835,-1.249 v -1.469 c 0,-0.182 -0.028,-0.21 -0.212,-0.21 h -0.155 c -0.19,0 -0.212,0.028 -0.212,0.21 v 2.949 c 0,0.184 0.022,0.208 0.212,0.208 h 0.155 c 0.184,0 0.212,-0.024 0.212,-0.208 z M -18.906,0 c 0,-0.183 -0.028,-0.207 -0.213,-0.207 h -0.187 c -0.181,0 -0.208,0.024 -0.208,0.207 v 4.992 c 0,0.187 0.027,0.211 0.208,0.211 h 0.187 c 0.185,0 0.213,-0.024 0.213,-0.211 z M 1.826,1.842 h 1.98 C 3.7,2.37 3.311,2.713 2.813,2.713 2.327,2.713 1.908,2.346 1.826,1.842 M 4.204,1.358 H 1.783 C 1.817,0.669 2.25,0.225 2.855,0.225 c 0.389,0 0.732,0.191 0.943,0.548 0.046,0.081 0.086,0.106 0.136,0.106 0.032,0 0.083,-0.025 0.137,-0.057 L 4.193,0.758 C 4.308,0.692 4.332,0.669 4.332,0.601 4.332,0.549 4.236,0.388 4.081,0.229 3.771,-0.12 3.324,-0.307 2.823,-0.307 c -0.974,0 -1.643,0.73 -1.643,1.786 0,1.029 0.676,1.752 1.633,1.752 0.943,0 1.602,-0.715 1.602,-1.726 0,-0.115 -0.051,-0.147 -0.211,-0.147"
             style="fill:#ec008c;fill-opacity:1;fill-rule:nonzero;stroke:none"
             id="path4776"
             inkscape:connector-curvature="0" />
        </g>
      </g>
    </g>
  </g>
</svg>
