<svg width="46" height="45" viewBox="0 0 46 45" fill="none" xmlns="http://www.w3.org/2000/svg">
<path d="M35.116 41.9041C34.5682 41.9036 34.0331 41.7396 33.5791 41.4331L24.3323 35.2356C24.2868 35.2041 24.2327 35.1873 24.1774 35.1873C24.122 35.1873 24.068 35.2041 24.0224 35.2356L14.7757 41.4331C14.3114 41.7432 13.7637 41.9046 13.2054 41.8961C12.6472 41.8875 12.1047 41.7093 11.6501 41.3852C11.1955 41.061 10.8503 40.6063 10.6603 40.0813C10.4702 39.5563 10.4444 38.9859 10.5861 38.4459L13.6229 27.7365C13.6373 27.6827 13.6356 27.6258 13.6179 27.573C13.6003 27.5201 13.5676 27.4735 13.5238 27.4391L4.77285 20.5598C4.31217 20.2166 3.97045 19.7378 3.7956 19.1906C3.62075 18.6434 3.62154 18.0552 3.79786 17.5085C3.97418 16.9618 4.31719 16.4839 4.77879 16.142C5.24039 15.8 5.79743 15.6111 6.37181 15.6018L17.5274 15.1803C17.5822 15.1765 17.6348 15.157 17.6788 15.124C17.7228 15.091 17.7563 15.046 17.7753 14.9944L21.6178 4.54533C21.8115 4.01561 22.1632 3.55821 22.6255 3.23504C23.0877 2.91187 23.6381 2.73856 24.2022 2.73856C24.7662 2.73856 25.3166 2.91187 25.7788 3.23504C26.2411 3.55821 26.5929 4.01561 26.7865 4.54533L30.629 14.9944C30.648 15.046 30.6815 15.091 30.7255 15.124C30.7695 15.157 30.8221 15.1765 30.8769 15.1803L42.0325 15.6018C42.6069 15.6111 43.1639 15.8 43.6255 16.142C44.0871 16.4839 44.4301 16.9618 44.6065 17.5085C44.7828 18.0552 44.7836 18.6434 44.6087 19.1906C44.4339 19.7378 44.0921 20.2166 43.6315 20.5598L34.8805 27.4391C34.8354 27.4724 34.8017 27.5189 34.7839 27.5721C34.7662 27.6254 34.7653 27.6828 34.7814 27.7365L37.8182 38.4459C37.9248 38.8567 37.9353 39.2865 37.8491 39.702C37.7628 40.1175 37.582 40.5076 37.3207 40.842C37.0594 41.1764 36.7247 41.4462 36.3423 41.6304C35.96 41.8146 35.5404 41.9082 35.116 41.9041ZM24.1836 32.707C24.7325 32.7238 25.2636 32.9051 25.7082 33.2276L34.9549 39.4251C35.0018 39.4607 35.0589 39.4802 35.1177 39.4807C35.1766 39.4812 35.234 39.4626 35.2815 39.4277C35.3289 39.3928 35.3637 39.3436 35.3808 39.2873C35.3979 39.2309 35.3964 39.1706 35.3763 39.1152L32.3395 28.4059C32.1901 27.8805 32.2011 27.3225 32.3712 26.8035C32.5413 26.2844 32.8626 25.8281 33.294 25.493L42.0449 18.6138C42.0926 18.5802 42.1284 18.5323 42.1468 18.4769C42.1653 18.4216 42.1655 18.3618 42.1475 18.3063C42.1295 18.2508 42.0941 18.2026 42.0466 18.1687C41.9992 18.1348 41.9421 18.117 41.8838 18.118L30.7282 17.6965C30.1819 17.6752 29.6544 17.4917 29.2129 17.1694C28.7714 16.8471 28.4359 16.4006 28.2492 15.8868L24.4067 5.43778C24.3894 5.38229 24.3548 5.3338 24.3079 5.29937C24.2611 5.26493 24.2045 5.24636 24.1464 5.24636C24.0883 5.24636 24.0317 5.26493 23.9848 5.29937C23.938 5.3338 23.9034 5.38229 23.8861 5.43778L20.0808 15.8744C19.8941 16.3882 19.5585 16.8347 19.117 17.157C18.6755 17.4793 18.148 17.6628 17.6018 17.6841L6.44618 18.1056C6.38786 18.1046 6.33076 18.1224 6.28329 18.1563C6.23582 18.1902 6.20048 18.2385 6.18245 18.2939C6.16442 18.3494 6.16465 18.4092 6.18312 18.4645C6.20159 18.5199 6.23731 18.5678 6.28505 18.6014L15.0484 25.493C15.4784 25.8292 15.7988 26.2856 15.9687 26.8043C16.1387 27.3229 16.1505 27.8804 16.0028 28.4059L12.9784 39.1152C12.9604 39.1689 12.9603 39.2269 12.9782 39.2806C12.996 39.3343 13.0309 39.3807 13.0776 39.4127C13.1225 39.4511 13.1796 39.4722 13.2387 39.4722C13.2978 39.4722 13.3549 39.4511 13.3998 39.4127L22.6466 33.2152C23.0985 32.9154 23.6289 32.7559 24.1712 32.7566L24.1836 32.707Z" fill="#ECA22D"/>
</svg>
