<svg width="37" height="37" viewBox="0 0 37 37" fill="none" xmlns="http://www.w3.org/2000/svg">
<path d="M36.9974 18.5006C36.9974 27.8443 30.0716 35.5689 21.0743 36.8224C20.2331 36.9391 19.3724 37 18.4987 37C17.4902 37 16.4999 36.9196 15.5355 36.7641C6.72751 35.3459 0 27.7082 0 18.5006C0 8.28329 8.283 0 18.5 0C28.717 0 37 8.28329 37 18.5006H36.9974Z" fill="white"/>
<path d="M21.0741 14.8553V18.8855H26.0595L25.2701 24.3144H21.0741V36.8223C20.2329 36.9389 19.3722 36.9998 18.4985 36.9998C17.49 36.9998 16.4997 36.9195 15.5353 36.7639L15.5353 24.3144H10.9375V18.8855H15.5353V13.9544C15.5353 10.8952 18.015 8.41406 21.0754 8.41406V8.41666C21.0845 8.41666 21.0923 8.41406 21.1014 8.41406H26.0608V13.1092H22.8202C21.8571 13.1092 21.0754 13.8909 21.0754 14.854L21.0741 14.8553Z" fill="#181818"/>
</svg>
