<svg width="37" height="37" viewBox="0 0 37 37" fill="none" xmlns="http://www.w3.org/2000/svg">
<path d="M18.5421 0L18.4579 0C8.26388 0 0 8.26387 0 18.4579L0 18.5421C0 28.7361 8.26388 37 18.4579 37H18.5421C28.7361 37 37 28.7361 37 18.5421V18.4579C37 8.26387 28.7361 0 18.5421 0Z" fill="white"/>
<path d="M8.82355 12.2984C8.33614 11.846 8.09375 11.286 8.09375 10.6197C8.09375 9.95343 8.33744 9.3688 8.82355 8.91509C9.31095 8.46269 9.93836 8.23584 10.7071 8.23584C11.4758 8.23584 12.0785 8.46269 12.5647 8.91509C13.0521 9.3675 13.2944 9.93657 13.2944 10.6197C13.2944 11.3029 13.0508 11.846 12.5647 12.2984C12.0772 12.7508 11.4589 12.9777 10.7071 12.9777C9.95521 12.9777 9.31095 12.7508 8.82355 12.2984ZM12.8848 14.8936V28.7639H8.50207L8.50207 14.8936H12.8848Z" fill="#181818"/>
<path d="M27.4744 16.264C28.4298 17.3011 28.9069 18.7244 28.9069 20.5366V28.5192H24.7445V21.0992C24.7445 20.1853 24.5073 19.475 24.0341 18.9694C23.561 18.4638 22.9232 18.2098 22.1247 18.2098C21.3262 18.2098 20.6884 18.4625 20.2152 18.9694C19.7421 19.475 19.5049 20.1853 19.5049 21.0992V28.5192H15.3179L15.3179 14.855H19.5049V16.6672C19.9287 16.0631 20.5004 15.5861 21.2186 15.2348C21.9367 14.8835 22.7443 14.7085 23.6426 14.7085C25.2423 14.7085 26.5204 15.227 27.4744 16.2627V16.264Z" fill="#181818"/>
</svg>
