<svg width="45" height="46" viewBox="0 0 45 46" fill="none" xmlns="http://www.w3.org/2000/svg">
<path d="M41.6765 24.0009L33.0867 20.0469V8.71779C33.0828 8.48011 33.0106 8.24857 32.8787 8.05078C32.7469 7.85299 32.5609 7.69729 32.343 7.60224L23.0467 3.32593C22.8835 3.25042 22.7059 3.2113 22.5261 3.2113C22.3463 3.2113 22.1687 3.25042 22.0055 3.32593L12.7092 7.60224C12.494 7.70181 12.312 7.86099 12.1845 8.06092C12.0571 8.26084 11.9897 8.49311 11.9903 8.73019V20.0593L3.43767 24.0009C3.22252 24.1005 3.04043 24.2597 2.91301 24.4596C2.78558 24.6595 2.71817 24.8918 2.71875 25.1289V37.2513C2.71817 37.4884 2.78558 37.7207 2.91301 37.9206C3.04043 38.1205 3.22252 38.2797 3.43767 38.3793L12.734 42.6556C12.8972 42.7311 13.0748 42.7702 13.2546 42.7702C13.4344 42.7702 13.612 42.7311 13.7752 42.6556L22.5509 38.6148L31.3266 42.6556C31.4898 42.7311 31.6674 42.7702 31.8472 42.7702C32.027 42.7702 32.2047 42.7311 32.3678 42.6556L41.6641 38.3793C41.8793 38.2797 42.0614 38.1205 42.1888 37.9206C42.3162 37.7207 42.3836 37.4884 42.3831 37.2513V25.1289C42.3847 24.8932 42.3192 24.6618 42.194 24.4621C42.0689 24.2623 41.8894 24.1023 41.6765 24.0009ZM31.8596 28.017L25.5257 25.1289L31.8596 22.2161L38.1935 25.1289L31.8596 28.017ZM30.6201 20.0345L22.6377 23.753V14.2212C22.7871 14.2146 22.9341 14.181 23.0715 14.1221L30.6077 10.6638V20.0593L30.6201 20.0345ZM22.5509 5.80495L28.8848 8.71779L22.5509 11.6306L16.2294 8.71779L22.5509 5.80495ZM13.2546 22.2037L19.5885 25.1165L13.2546 28.017L6.92069 25.1289L13.2546 22.2037ZM21.3114 36.4456L13.2546 40.1642V30.6323C13.4276 30.622 13.5965 30.5756 13.7504 30.496L21.2866 27.0254L21.3114 36.4456ZM39.904 36.4456L31.8968 40.1642V30.6323C32.0528 30.6155 32.2043 30.5693 32.343 30.496L39.8792 27.0254L39.904 36.4456Z" fill="#ECA22D"/>
</svg>
