<?xml version="1.0" encoding="UTF-8" standalone="no"?><!DOCTYPE svg PUBLIC "-//W3C//DTD SVG 1.1//EN" "http://www.w3.org/Graphics/SVG/1.1/DTD/svg11.dtd"><svg width="100%" height="100%" viewBox="0 0 273 78" version="1.1" xmlns="http://www.w3.org/2000/svg" xmlns:xlink="http://www.w3.org/1999/xlink" xml:space="preserve" xmlns:serif="http://www.serif.com/" style="fill-rule:evenodd;clip-rule:evenodd;stroke-linejoin:round;stroke-miterlimit:2;"><rect x="-0.15" y="16.078" width="257.176" height="62.185" style="fill:#303438;"/><rect x="16.019" y="-0.023" width="257.01" height="62.184" style="fill:#303438;"/><path d="M50.241,62.332l-23.461,-29.285l0,29.266l-10.76,-0l0,-46.234l10.913,-0l37.257,46.236l-13.949,0.017Z" style="fill:#fff;fill-rule:nonzero;"/><rect x="53.401" y="16.079" width="10.669" height="10.669" style="fill:#fff;"/><path d="M209.023,62.152l0,-46.234l48.003,0l0,8.987l-37.065,0l0,9.18l26.307,0l-0,8.987l-26.307,0l0,10.093l37.065,0l0,8.987l-48.003,0Z" style="fill:#fff;fill-rule:nonzero;"/><path d="M146.538,62.161l0,-46.234l48.05,-0.02l0,8.987l-37.109,0.02l0,9.637l26.435,0l0,8.921l-26.435,0l0,18.689l-10.941,0Z" style="fill:#fff;fill-rule:nonzero;"/><path d="M104.605,54.575c-10.598,0 -16.838,-7.116 -16.865,-15.54c0.027,-8.425 6.267,-15.54 16.865,-15.54c6.37,-0.103 11.193,2.902 13.975,7.468l12.329,0c-4.11,-9.472 -13.428,-17.155 -27.733,-17.125c-15.682,0 -27.333,11.378 -27.392,25.144l-0.002,-0l-0,0.106l0.002,-0c0.059,13.766 11.71,25.144 27.392,25.144c14.305,0.029 23.623,-7.653 27.733,-17.125l-12.329,-0c-2.782,4.566 -7.605,7.571 -13.975,7.468" style="fill:#fff;fill-rule:nonzero;"/></svg>