<svg width="37" height="37" viewBox="0 0 37 37" fill="none" xmlns="http://www.w3.org/2000/svg">
<path d="M36.9974 18.5006C36.9974 27.8443 30.0716 35.5689 21.0743 36.8224C20.2331 36.9391 19.3724 37 18.4987 37C17.4902 37 16.4999 36.9196 15.5355 36.7641C6.72751 35.3459 0 27.7082 0 18.5006C0 8.28329 8.283 0 18.5 0C28.717 0 37 8.28329 37 18.5006H36.9974Z" fill="white"/>
<path d="M7.50237 8.15967L16.0342 19.567L7.44922 28.842H9.38192L16.8988 20.722L22.9718 28.842H29.5476L20.5361 16.793L28.5275 8.15967H26.5947L19.6728 15.638L14.0795 8.15967H7.50365H7.50237ZM10.3437 9.58299H13.364L26.7036 27.4186H23.6834L10.3437 9.58299Z" fill="#181818"/>
</svg>
